<svg width="32" height="32" viewBox="0 0 32 32" fill="none" xmlns="http://www.w3.org/2000/svg">
<path d="M10.1936 20.023C10.1936 21.5312 8.83225 22.7972 7.09678 22.7972C5.3613 22.7972 4 21.5312 4 20.023C4 18.5147 5.3613 17.2488 7.09678 17.2488C8.83225 17.2488 10.1936 18.5147 10.1936 20.023Z" fill="white" stroke="#323232" stroke-width="0.516129"/>
<path d="M20.9032 20.023C20.9032 21.5312 22.2645 22.7972 24 22.7972C25.7355 22.7972 27.0968 21.5312 27.0968 20.023C27.0968 18.5147 25.7355 17.2488 24 17.2488C22.2645 17.2488 20.9032 18.5147 20.9032 20.023Z" fill="white" stroke="#323232" stroke-width="0.516129"/>
<path d="M24.1291 19.1304C24.1291 22.0275 23.3603 24.2366 21.9337 25.7209C20.5086 27.2036 18.3913 28 15.6168 28C12.8422 28 10.6893 27.2035 9.22953 25.7188C7.76915 24.2335 6.96777 22.0245 6.96777 19.1304C6.96777 16.2368 7.76865 14.1616 9.22154 12.8066C10.6777 11.4485 12.8309 10.7742 15.6168 10.7742C18.4027 10.7742 20.5203 11.4485 21.9416 12.8046C23.3607 14.1585 24.1291 16.2338 24.1291 19.1304Z" fill="white" stroke="#323232" stroke-width="0.516129" stroke-linecap="round"/>
<path d="M15.6129 21.1613C15.3586 22.0403 15.2258 22.4995 15.2258 23.4139C15.5665 23.5768 15.892 23.6175 16.4516 23.6129" stroke="#323232" stroke-width="0.516129" stroke-linecap="round" stroke-linejoin="round"/>
<path d="M11.0668 22.8677C11.3328 22.8677 11.5687 22.7239 11.7359 22.5009C11.9031 22.2781 12.0046 21.973 12.0046 21.639C12.0046 21.3048 11.9031 20.9997 11.7359 20.7769C11.5687 20.5539 11.3328 20.4101 11.0668 20.4101C10.8008 20.4101 10.5649 20.5539 10.3977 20.7769C10.2306 20.9997 10.1291 21.3048 10.1291 21.639C10.1291 21.973 10.2306 22.2781 10.3977 22.5009C10.5649 22.7239 10.8008 22.8677 11.0668 22.8677Z" fill="#323232" stroke="#323232" stroke-width="0.129032" stroke-linecap="round"/>
<path d="M11.4344 21.6757C11.6126 21.6757 11.757 21.5313 11.757 21.3532C11.757 21.175 11.6126 21.0306 11.4344 21.0306C11.2562 21.0306 11.1118 21.175 11.1118 21.3532C11.1118 21.5313 11.2562 21.6757 11.4344 21.6757Z" fill="white" stroke="#323232" stroke-width="0.129032"/>
<path d="M20.3572 22.8677C20.6231 22.8677 20.859 22.7239 21.0262 22.5009C21.1934 22.2781 21.2949 21.973 21.2949 21.639C21.2949 21.3048 21.1934 20.9999 21.0262 20.7769C20.859 20.5539 20.6231 20.4101 20.3572 20.4101C20.0911 20.4101 19.8552 20.5539 19.688 20.7769C19.5209 20.9999 19.4194 21.3048 19.4194 21.639C19.4194 21.973 19.5209 22.2781 19.688 22.5009C19.8552 22.7239 20.0911 22.8677 20.3572 22.8677Z" fill="#323232" stroke="#323232" stroke-width="0.129032" stroke-linecap="round"/>
<path d="M20.7246 21.6112C20.8672 21.6112 20.9827 21.4957 20.9827 21.3532C20.9827 21.2106 20.8672 21.0951 20.7246 21.0951C20.5821 21.0951 20.4666 21.2106 20.4666 21.3532C20.4666 21.4957 20.5821 21.6112 20.7246 21.6112Z" fill="white"/>
<path d="M14.7097 25.1198C15.0968 25.5929 16.1032 26.2552 17.0323 25.1198" stroke="#323232" stroke-width="0.516129" stroke-linecap="round" stroke-linejoin="round"/>
<g filter="url(#filter0_f_1_163)">
<path d="M10.5161 25.0323C11.1931 25.0323 11.7419 24.7146 11.7419 24.3226C11.7419 23.9307 11.1931 23.6129 10.5161 23.6129C9.83913 23.6129 9.29031 23.9307 9.29031 24.3226C9.29031 24.7146 9.83913 25.0323 10.5161 25.0323Z" fill="#FC9D80"/>
</g>
<g filter="url(#filter1_f_1_163)">
<path d="M20.7097 25.0323C21.3867 25.0323 21.9355 24.7146 21.9355 24.3226C21.9355 23.9307 21.3867 23.6129 20.7097 23.6129C20.0327 23.6129 19.4839 23.9307 19.4839 24.3226C19.4839 24.7146 20.0327 25.0323 20.7097 25.0323Z" fill="#FC9D80"/>
</g>
<path d="M5.35485 14.1936C4.92145 18.0652 6.96776 20.7097 7.35485 21.0323C7.35485 21.0323 7.77156 17.6074 9.39189 14.9032C14.3542 16.6899 16.3972 16.7481 21.3548 14.9032C22.1936 16.3226 23.2903 18.3871 23.7751 21.0323C24.5807 20.7097 25.8578 14.7672 25.4194 12C24.9809 9.23284 22.857 9.43421 22.857 9.43421C22.857 9.43421 24.3871 8.06075 23.7751 6.6873C23.163 5.31385 20.2557 6.6873 20.2557 6.6873C20.2557 6.6873 21.6329 4.70343 19.3377 4.093C17.0425 3.48258 14.2883 6.07688 14.2883 6.07688C14.2883 6.07688 15.3594 4.093 13.3702 4.093C11.381 4.093 9.39189 8.06075 9.39189 8.06075C9.39189 8.06075 8.91811 6.50372 8.00002 7.41936C7.08192 8.335 7.55574 11.5707 7.55574 11.5707C7.55574 11.5707 5.78826 10.322 5.35485 14.1936Z" fill="#323232"/>
<defs>
<filter id="filter0_f_1_163" x="7.74193" y="22.0645" width="5.54837" height="4.51613" filterUnits="userSpaceOnUse" color-interpolation-filters="sRGB">
<feFlood flood-opacity="0" result="BackgroundImageFix"/>
<feBlend mode="normal" in="SourceGraphic" in2="BackgroundImageFix" result="shape"/>
<feGaussianBlur stdDeviation="0.774194" result="effect1_foregroundBlur_1_163"/>
</filter>
<filter id="filter1_f_1_163" x="17.9355" y="22.0645" width="5.54837" height="4.51613" filterUnits="userSpaceOnUse" color-interpolation-filters="sRGB">
<feFlood flood-opacity="0" result="BackgroundImageFix"/>
<feBlend mode="normal" in="SourceGraphic" in2="BackgroundImageFix" result="shape"/>
<feGaussianBlur stdDeviation="0.774194" result="effect1_foregroundBlur_1_163"/>
</filter>
</defs>
</svg>
